<svg width="329" height="42" viewBox="0 0 329 42" fill="none" xmlns="http://www.w3.org/2000/svg">
<path d="M150.512 12.8395V19.8065H153.352C154.874 19.8065 155.923 18.1493 155.923 16.5259C155.923 14.5305 155.382 12.8395 153.082 12.8395H150.512ZM145.405 33.5039V9.08538H154.604C159.271 9.08538 161.097 11.9263 161.097 16.3906C161.097 19.1639 160.286 23.5606 154.299 23.5606H150.512V33.5039H145.405ZM169.372 12.8395V19.6374H171.638C173.667 19.6374 174.242 17.6082 174.242 16.0524C174.242 13.7188 173.262 12.8395 171.638 12.8395H169.372ZM169.372 23.3915V33.5039H164.265V9.08538H173.701C177.185 9.08538 179.417 11.3175 179.417 15.4775C179.417 18.589 178.199 20.9226 174.885 21.4637V21.5314C176.001 21.6667 179.315 21.9372 179.315 26.3339C179.315 27.8897 179.417 32.4893 179.89 33.5039H174.885C174.208 32.0158 174.344 30.3586 174.344 28.769C174.344 25.8604 174.614 23.3915 170.691 23.3915H169.372ZM196.958 33.5039H183.363V9.08538H196.688V12.8395H188.469V18.8596H196.045V22.6136H188.469V29.7498H196.958V33.5039ZM204.534 33.5039L198.514 9.08538H203.824L207.612 26.8412H207.68L211.941 9.08538H216.98L210.521 33.5039H204.534ZM233.068 33.5039H219.472V9.08538H232.797V12.8395H224.579V18.8596H232.154V22.6136H224.579V29.7498H233.068V33.5039ZM241.387 33.5039H236.619V9.08538H243.518L250.012 25.9957H250.079V9.08538H254.848V33.5039H248.118L241.455 15.6466H241.387V33.5039ZM257.418 9.08538H273.889V13.1439H268.207V33.5039H263.1V13.1439H257.418V9.08538ZM281.566 33.5039H276.459V9.08538H281.566V33.5039ZM294.26 30.2571C297.134 30.2571 297.507 27.5515 297.507 21.2946C297.507 15.0378 297.134 12.3322 294.26 12.3322C291.385 12.3322 291.013 15.0378 291.013 21.2946C291.013 27.5515 291.385 30.2571 294.26 30.2571ZM294.26 33.9098C285.838 33.9098 285.838 27.6868 285.838 21.2946C285.838 14.8349 285.838 8.67953 294.26 8.67953C302.681 8.67953 302.681 14.8349 302.681 21.2946C302.681 27.6868 302.681 33.9098 294.26 33.9098ZM311.756 33.5039H306.987V9.08538H313.887L320.38 25.9957H320.448V9.08538H325.217V33.5039H318.486L311.824 15.6466H311.756V33.5039Z" fill="white"/>
<path d="M120.478 27.3526C122.383 27.3526 122.63 25.5598 122.63 21.414C122.63 17.2682 122.383 15.4755 120.478 15.4755C118.574 15.4755 118.327 17.2682 118.327 21.414C118.327 25.5598 118.574 27.3526 120.478 27.3526ZM120.478 29.7728C114.898 29.7728 114.898 25.6494 114.898 21.414C114.898 17.1338 114.898 13.0552 120.478 13.0552C126.059 13.0552 126.059 17.1338 126.059 21.414C126.059 25.6494 126.059 29.7728 120.478 29.7728ZM132.206 29.5039H128.822V13.3241H137.226V15.8116H132.206V19.9574H137.002V22.4449H132.206V29.5039Z" fill="white"/>
<path d="M7.27678 12.8281V19.799H10.1193C11.642 19.799 12.6911 18.1409 12.6911 16.5166C12.6911 14.5201 12.1496 12.8281 9.84856 12.8281H7.27678ZM2.16705 33.5039V9.07198H11.3713C16.0411 9.07198 17.8685 11.9145 17.8685 16.3813C17.8685 19.1561 17.0563 23.5552 11.0668 23.5552H7.27678V33.5039H2.16705Z" fill="white"/>
<path d="M45.2195 33.5L39.8052 9.06808H45.0503L48.2312 26.2246H48.2989L52.1565 9.06808H58.1799L61.8345 26.2246H61.9022L64.9478 9.06808H69.956L64.5417 33.5H58.8905L55.0667 15.6329H54.999L50.7691 33.5H45.2195ZM85.8493 33.5H72.2459V9.06808H85.5786V12.8242H77.3556V18.8476H84.9356V22.6038H77.3556V29.7438H85.8493V33.5ZM94.3768 12.8242V19.6259H96.644C98.6744 19.6259 99.2496 17.5956 99.2496 16.039C99.2496 13.7041 98.2683 12.8242 96.644 12.8242H94.3768ZM94.3768 23.3821V33.5H89.2671V9.06808H98.7082C102.194 9.06808 104.427 11.3015 104.427 15.4637C104.427 18.5769 103.209 20.9118 99.8926 21.4532V21.5209C101.009 21.6563 104.326 21.927 104.326 26.3261C104.326 27.8827 104.427 32.4848 104.901 33.5H99.8926C99.2158 32.0111 99.3511 30.353 99.3511 28.7625C99.3511 25.8523 99.6219 23.3821 95.6965 23.3821H94.3768Z" fill="white"/>
<path d="M37.8967 21.3985C37.8967 27.85 37.8967 34.1309 29.3684 34.1309C20.8401 34.1309 20.8401 27.85 20.8401 21.3985C20.8401 14.8786 20.8401 8.66602 29.3684 8.66602C37.8967 8.66602 37.8967 14.8786 37.8967 21.3985Z" fill="white"/>
<path d="M24.7599 19.8194L32.8582 10.1465L30.3993 16.9212H34.1L30.3993 22.5829H34.1L25.8197 32.355L28.2466 25.2945H24.7599L28.2466 19.8194H24.7599Z" fill="#F8CB20"/>
</svg>
